<?xml version="1.0" standalone="no"?>
<!DOCTYPE svg PUBLIC "-//W3C//DTD SVG 20010904//EN"
 "http://www.w3.org/TR/2001/REC-SVG-20010904/DTD/svg10.dtd">
<svg version="1.0" xmlns="http://www.w3.org/2000/svg"
 width="400.000000pt" height="400.000000pt" viewBox="0 0 400.000000 400.000000"
 preserveAspectRatio="xMidYMid meet">

<g transform="translate(0.000000,400.000000) scale(0.100000,-0.100000)"
fill="#000000" stroke="none">
<path d="M1970 3939 c0 -4 5 -11 10 -14 15 -9 13 -198 -2 -213 -9 -9 -4 -12
25 -12 34 0 37 2 27 19 -13 25 -13 211 0 211 6 0 10 4 10 9 0 5 -16 9 -35 8
-19 -1 -35 -4 -35 -8z"/>
<path d="M2070 3919 c0 -34 10 -37 28 -9 7 11 21 20 32 20 17 0 20 -7 19 -37
-1 -84 -16 -175 -30 -184 -10 -6 -7 -9 13 -9 14 0 35 -3 45 -7 15 -6 16 -5 5
9 -10 12 -11 41 -6 117 7 97 8 101 30 101 17 0 25 -7 30 -25 8 -34 21 -32 26
4 l4 30 -65 6 c-36 3 -81 7 -98 10 -31 3 -33 2 -33 -26z"/>
<path d="M1817 3922 c-18 -19 -22 -59 -9 -78 4 -6 26 -21 49 -33 51 -25 68
-52 53 -81 -15 -28 -63 -27 -83 3 l-16 22 0 -22 c-1 -32 -8 -29 -52 18 -36 39
-37 41 -22 68 19 33 11 76 -17 91 -29 16 -155 -7 -137 -25 7 -7 21 -56 31
-110 16 -82 16 -99 5 -107 -10 -7 -4 -8 20 -4 18 3 39 6 45 6 7 0 6 4 -2 9
-14 9 -34 80 -26 93 11 18 35 6 71 -37 l37 -45 72 4 c81 4 92 8 104 42 15 39
-4 71 -60 99 -43 22 -50 29 -50 55 0 24 5 31 27 36 20 5 30 2 44 -14 22 -28
29 -28 29 3 0 23 -3 25 -48 25 -35 0 -54 -5 -65 -18z m-119 -34 c22 -29 23
-57 2 -78 -31 -31 -53 -22 -62 25 -5 21 -6 45 -4 52 7 17 50 17 64 1z"/>
<path d="M2286 3919 c7 -8 20 -43 31 -79 20 -67 17 -140 -6 -148 -20 -7 -1
-22 27 -22 26 0 27 2 27 50 0 47 3 53 58 108 47 48 55 60 42 66 -28 10 -45 7
-39 -9 4 -8 -8 -33 -27 -56 l-33 -42 -13 39 c-8 22 -12 51 -9 67 4 22 2 27
-13 27 -11 0 -28 3 -38 7 -15 5 -16 4 -7 -8z"/>
<path d="M1446 3861 c-65 -22 -76 -29 -63 -39 18 -15 70 -179 63 -198 -7 -18
-5 -18 76 8 62 20 69 25 66 47 -4 34 -28 40 -28 7 0 -28 -3 -31 -46 -40 -29
-6 -31 -5 -42 32 -7 22 -12 44 -12 49 0 16 42 24 57 11 21 -17 25 -3 9 33 -14
32 -15 33 -21 12 -4 -13 -11 -23 -15 -23 -5 0 -15 -3 -23 -6 -10 -4 -19 7 -30
39 l-15 44 36 11 c30 10 39 9 54 -5 23 -20 33 -11 22 20 l-9 24 -79 -26z"/>
<path d="M1307 3814 c-25 -14 -27 -17 -13 -27 12 -9 18 -36 23 -97 l6 -85 -57
65 c-36 41 -55 71 -52 83 5 20 7 20 -32 6 l-31 -11 50 -51 c27 -29 66 -73 86
-99 20 -25 41 -44 47 -42 8 3 9 38 4 122 -4 64 -5 125 -2 135 6 20 7 20 -29 1z"/>
<path d="M2577 3809 c-37 -28 -61 -112 -46 -156 18 -56 90 -80 138 -47 30 22
61 89 61 137 0 77 -90 116 -153 66z m105 -6 c25 -22 23 -68 -6 -130 -26 -55
-62 -77 -95 -56 -37 23 -15 155 32 188 28 19 46 19 69 -2z"/>
<path d="M2806 3756 c6 -16 -80 -192 -96 -198 -7 -2 4 -11 23 -20 32 -16 34
-16 30 0 -2 9 3 34 12 55 18 43 43 47 60 9 13 -28 19 -28 33 3 17 36 15 50 -3
35 -12 -10 -21 -10 -40 -2 l-25 12 22 45 22 45 30 -18 c17 -10 32 -28 34 -40
4 -27 18 -28 32 -2 9 18 3 23 -60 55 -78 40 -81 40 -74 21z"/>
<path d="M1081 3706 c-18 -10 -20 -14 -9 -19 23 -8 111 -166 105 -187 -5 -18
-3 -18 28 -3 32 15 33 17 16 32 -23 20 -101 158 -101 177 0 17 -8 17 -39 0z"/>
<path d="M989 3650 c-13 -11 -18 -19 -10 -18 7 2 35 -27 61 -63 l48 -67 -95
43 c-92 42 -97 43 -121 27 -24 -15 -24 -16 -4 -23 27 -10 125 -156 118 -175
-7 -19 4 -17 34 6 20 16 21 20 8 20 -10 0 -38 31 -68 75 l-50 74 97 -45 c126
-59 120 -57 127 -46 3 5 -15 38 -40 73 -26 35 -54 81 -64 102 l-17 38 -24 -21z"/>
<path d="M1820 3639 c-161 -20 -389 -88 -522 -155 -180 -91 -314 -191 -456
-339 -209 -219 -350 -483 -414 -778 -20 -89 -22 -131 -22 -332 0 -199 3 -243
22 -328 83 -371 281 -695 567 -924 323 -259 724 -384 1135 -353 400 31 735
185 1021 470 283 282 430 598 470 1008 19 189 -8 421 -71 627 -30 98 -127 296
-188 387 -235 348 -560 576 -973 683 -152 40 -406 55 -569 34z m257 -320 c30
-96 71 -224 91 -285 l36 -112 95 -31 c165 -55 328 -175 438 -325 l45 -61 310
-5 310 -5 -178 -130 c-99 -71 -211 -153 -250 -182 l-71 -53 -6 -127 c-4 -115
-9 -139 -42 -233 -38 -108 -69 -168 -135 -256 l-38 -51 94 -289 c52 -159 93
-292 92 -295 -2 -4 -37 17 -78 47 -148 108 -167 121 -293 213 l-129 94 -85
-27 c-184 -57 -365 -57 -546 1 l-78 24 -87 -64 c-48 -35 -154 -112 -237 -172
-82 -59 -158 -115 -168 -123 -16 -14 -16 -13 -7 14 85 258 180 556 180 564 0
6 -25 46 -55 89 -105 150 -153 293 -162 482 l-6 115 -185 135 c-102 74 -215
155 -250 182 l-65 47 311 0 311 0 45 63 c112 156 275 276 461 336 l79 26 94
288 c52 159 96 287 98 284 3 -3 30 -83 61 -178z"/>
<path d="M1750 2871 c-129 -41 -271 -132 -367 -235 -37 -40 -76 -88 -86 -105
l-18 -31 71 0 71 0 55 59 c55 60 171 140 252 176 39 17 44 23 62 83 11 36 19
66 18 67 -2 2 -28 -5 -58 -14z"/>
<path d="M2226 2854 c22 -90 28 -97 108 -141 99 -53 175 -111 223 -168 l37
-45 73 0 c40 0 73 2 73 5 0 17 -87 120 -154 182 -58 54 -102 84 -188 127 -62
31 -128 59 -146 63 -32 6 -33 5 -26 -23z"/>
<path d="M1670 2668 c-73 -39 -200 -140 -200 -159 0 -5 42 -9 93 -9 73 1 96 4
113 18 19 16 81 178 72 187 -2 2 -37 -14 -78 -37z"/>
<path d="M2282 2688 c4 -8 16 -48 28 -87 28 -94 41 -103 156 -99 l89 3 -60 58
c-53 52 -143 112 -199 133 -15 6 -18 4 -14 -8z"/>
<path d="M1150 2045 c0 -94 35 -256 74 -341 33 -69 106 -187 125 -199 5 -3 20
25 32 63 l22 68 -28 44 c-36 57 -81 181 -90 245 -12 96 -15 101 -62 136 -77
56 -73 57 -73 -16z"/>
<path d="M2808 2064 c-32 -25 -60 -55 -62 -67 -28 -148 -41 -192 -79 -269
l-42 -87 23 -71 24 -72 39 54 c94 128 147 282 156 451 3 59 4 107 2 107 -2 -1
-30 -21 -61 -46z"/>
<path d="M1312 1942 c12 -77 42 -167 77 -225 l28 -48 27 91 c15 50 24 99 21
110 -5 15 -97 91 -151 123 -8 4 -8 -10 -2 -51z"/>
<path d="M2635 1938 c-45 -34 -71 -61 -73 -76 -3 -23 34 -150 48 -166 20 -21
107 222 98 275 -3 16 -13 11 -73 -33z"/>
<path d="M1932 1428 c-39 -29 -71 -56 -72 -60 -1 -21 281 -21 302 0 8 8 -128
112 -148 112 -5 0 -42 -24 -82 -52z"/>
<path d="M1757 1300 c-32 -23 -55 -46 -50 -51 12 -11 107 -35 199 -49 94 -15
214 -7 320 20 115 30 116 31 50 80 l-56 43 -96 -13 c-88 -12 -188 -10 -274 5
-30 6 -43 1 -93 -35z"/>
<path d="M3016 3631 c-27 -29 -20 -46 10 -26 24 15 28 16 42 1 14 -14 12 -21
-24 -73 -58 -84 -84 -114 -97 -107 -7 3 2 -6 18 -20 34 -29 47 -33 39 -12 -5
14 84 157 106 171 18 11 42 -16 35 -42 -7 -29 9 -30 29 -1 14 20 12 23 -54 69
-38 26 -73 50 -78 53 -5 3 -17 -3 -26 -13z"/>
<path d="M793 3513 c-21 -14 -34 -41 -14 -29 5 3 37 -25 71 -64 49 -55 61 -75
58 -97 -2 -20 -11 -30 -32 -38 -27 -9 -32 -6 -92 60 -35 39 -64 76 -64 83 0 9
-7 8 -25 -4 -25 -16 -34 -36 -15 -31 6 1 39 -28 73 -65 51 -54 69 -68 93 -68
38 0 69 22 82 57 12 37 6 51 -53 119 -27 32 -52 65 -55 75 -5 15 -7 15 -27 2z"/>
<path d="M3216 3507 c7 -18 -122 -167 -144 -167 -12 0 -10 -6 8 -25 25 -27 42
-33 35 -12 -3 6 9 29 26 50 l31 37 40 -31 39 -32 -37 -38 c-20 -21 -41 -36
-46 -33 -18 11 -6 -14 17 -36 21 -20 25 -21 25 -6 0 20 127 164 148 168 9 2 3
11 -17 26 -17 12 -28 17 -26 10 3 -7 -9 -29 -25 -48 l-29 -35 -36 35 -35 35
30 33 c16 18 34 30 40 27 25 -15 7 16 -20 35 -20 14 -28 16 -24 7z"/>
<path d="M3400 3329 c0 -8 -34 -44 -75 -81 -54 -48 -80 -65 -92 -61 -10 4 7
-21 37 -55 30 -34 60 -62 66 -62 6 0 19 10 30 22 l19 21 -32 -6 c-27 -5 -37
-2 -58 21 l-26 27 37 33 c35 30 38 31 56 15 11 -10 16 -24 12 -35 -7 -23 5
-23 34 1 28 24 28 31 -2 31 -13 0 -30 7 -37 16 -12 14 -9 20 21 45 19 16 37
29 41 29 15 0 41 -54 36 -76 -5 -27 1 -30 28 -10 18 13 17 16 -23 63 -54 65
-72 80 -72 62z"/>
<path d="M558 3283 c-15 -16 -29 -40 -33 -54 -18 -75 91 -177 165 -154 12 4
35 25 51 48 28 39 29 42 13 54 -27 20 -34 16 -28 -15 6 -32 -15 -62 -44 -62
-47 1 -142 85 -142 126 0 24 37 53 59 47 23 -6 28 6 9 25 -17 17 -21 16 -50
-15z"/>
<path d="M437 3127 c-19 -30 -22 -41 -7 -32 13 8 178 -103 182 -122 2 -10 11
-4 26 16 l23 31 -22 0 c-22 0 -175 102 -181 121 -2 7 -12 0 -21 -14z"/>
<path d="M3577 3106 c-8 -20 -170 -117 -186 -111 -11 4 -11 1 1 -17 8 -13 18
-30 23 -38 7 -12 10 -10 15 8 3 13 17 31 32 40 27 16 28 16 57 -16 33 -36 72
-42 109 -16 31 21 28 57 -10 115 -17 27 -32 49 -34 49 -1 0 -4 -6 -7 -14z m43
-76 c4 -30 -1 -40 -29 -54 -27 -14 -31 -14 -55 5 -14 11 -26 24 -26 29 0 4 19
19 43 33 43 26 63 23 67 -13z"/>
<path d="M377 3037 c-17 -26 -17 -27 2 -27 11 0 50 -18 88 -40 l68 -40 -111 0
c-108 0 -111 -1 -122 -25 -9 -19 -8 -23 2 -19 16 6 175 -83 183 -102 8 -21 18
-17 31 12 7 14 8 23 2 19 -5 -3 -47 15 -92 40 l-83 45 100 0 c101 0 145 6 145
20 0 4 -43 31 -95 60 -52 30 -96 61 -97 69 -2 11 -8 7 -21 -12z"/>
<path d="M3687 2927 c-7 -18 -177 -99 -194 -93 -17 7 -16 2 4 -37 12 -22 18
-27 20 -16 3 13 24 27 85 57 6 3 48 -69 48 -82 0 -9 -92 -46 -101 -40 -12 7
-11 0 3 -31 11 -25 28 -34 28 -15 0 16 179 100 197 93 13 -5 12 -1 -3 28 -9
19 -19 28 -22 21 -2 -7 -21 -21 -43 -32 l-39 -20 -20 40 c-11 21 -20 42 -20
44 0 10 59 36 80 36 20 0 20 1 5 30 -17 34 -21 36 -28 17z"/>
<path d="M252 2805 c-15 -33 -15 -36 2 -29 17 6 86 -21 86 -34 0 -5 -7 -26
-15 -46 -17 -41 -35 -42 -87 -5 l-26 18 -10 -28 c-9 -26 -8 -29 11 -29 31 0
180 -60 193 -78 10 -12 14 -9 23 17 14 40 14 38 -7 33 -21 -6 -92 22 -92 36 0
6 7 27 15 46 12 30 18 34 37 28 41 -12 78 -34 78 -47 1 -6 7 3 15 22 18 40 18
44 4 36 -13 -9 -180 52 -195 71 -15 19 -19 18 -32 -11z"/>
<path d="M3785 2704 c-13 -19 -164 -76 -191 -71 -20 3 -20 1 -11 -31 9 -27 13
-31 21 -20 14 19 185 80 204 73 11 -4 13 1 7 22 -9 37 -18 46 -30 27z"/>
<path d="M3828 2600 c-6 -18 -191 -70 -205 -58 -19 16 -16 -8 10 -83 l22 -66
33 9 c37 10 34 28 -4 28 -17 0 -27 8 -35 27 -5 14 -8 31 -6 37 6 15 172 60
196 53 17 -4 18 -1 10 26 -10 35 -16 42 -21 27z"/>
<path d="M164 2564 c-35 -84 29 -154 142 -154 53 0 80 22 90 74 8 46 0 66 -27
66 -21 0 -21 -1 -5 -19 24 -26 17 -62 -16 -80 -23 -13 -34 -14 -75 -3 -67 18
-98 42 -98 78 0 20 7 32 23 39 28 12 29 35 1 35 -14 0 -25 -11 -35 -36z"/>
<path d="M3878 2418 c-7 -17 -174 -54 -207 -45 -15 3 -18 0 -14 -17 11 -47 13
-50 26 -34 13 17 189 54 206 43 13 -7 14 20 2 49 -6 16 -9 17 -13 4z"/>
<path d="M116 2377 c-3 -13 -8 -50 -12 -82 -6 -51 -5 -58 7 -49 16 13 201 -11
207 -27 9 -23 20 -4 26 42 4 29 10 64 13 79 4 25 2 28 -26 32 -36 5 -39 -1
-10 -25 16 -14 19 -25 14 -50 -4 -18 -9 -33 -10 -35 -2 -2 -24 0 -49 3 -40 6
-46 11 -46 31 0 14 9 28 23 35 22 12 21 13 -12 21 -38 10 -49 5 -32 -16 7 -9
10 -24 6 -37 -6 -18 -12 -21 -47 -16 -22 3 -42 7 -44 10 -12 12 9 77 27 82 27
9 24 25 -5 25 -17 0 -26 -7 -30 -23z"/>
<path d="M3896 2301 c-3 -4 -49 -14 -101 -21 -79 -9 -99 -9 -112 2 -15 11 -16
10 -10 -12 4 -14 7 -34 7 -44 0 -18 1 -18 13 -4 6 9 29 18 49 20 36 4 37 3 47
-39 12 -45 33 -63 75 -63 42 0 56 24 56 95 0 59 -11 88 -24 66z m12 -73 c3
-28 -27 -58 -60 -58 -24 0 -48 27 -48 55 0 18 6 25 28 28 58 9 77 4 80 -25z"/>
<path d="M87 2143 c-12 -126 -11 -133 23 -133 34 0 40 15 10 25 -13 4 -20 15
-20 32 l0 26 102 -5 c64 -3 103 -9 106 -17 9 -26 22 -8 22 32 0 25 -4 37 -8
29 -6 -9 -36 -12 -113 -10 -96 3 -104 4 -104 23 0 11 10 24 23 30 25 11 29 25
8 25 -8 0 -21 2 -29 5 -11 5 -15 -9 -20 -62z"/>
<path d="M3691 2071 c-1 -35 2 -42 11 -33 7 7 31 12 55 12 42 0 43 0 43 -35 0
-43 29 -75 69 -75 36 0 57 20 66 60 7 31 -4 125 -12 103 -3 -9 -35 -13 -113
-13 -77 0 -110 4 -113 13 -3 6 -6 -8 -6 -32z m229 -39 c0 -37 -17 -52 -57 -52
-22 0 -36 6 -43 19 -24 45 -10 58 63 60 34 1 37 -1 37 -27z"/>
<path d="M80 1970 c0 -23 4 -27 19 -23 10 2 38 -5 62 -17 l43 -22 -40 -24
c-21 -14 -47 -23 -56 -20 -15 3 -18 -3 -18 -31 0 -33 1 -35 18 -21 76 65 179
97 210 66 9 -9 12 -4 12 25 0 35 -12 48 -25 27 -14 -23 -86 -10 -155 29 l-70
40 0 -29z"/>
<path d="M3690 1885 c0 -29 3 -35 13 -27 19 16 206 0 217 -18 7 -11 10 -6 10
20 l0 35 -105 1 c-68 1 -110 6 -120 14 -13 11 -15 7 -15 -25z"/>
<path d="M260 1840 c0 -5 8 -10 19 -10 24 0 38 -18 43 -55 l3 -30 -85 -12
c-47 -7 -98 -12 -113 -10 -25 3 -28 1 -23 -17 3 -12 6 -27 6 -34 0 -11 3 -10
14 1 17 16 198 43 216 32 9 -5 11 0 6 21 -3 16 -8 50 -12 77 -6 46 -7 47 -40
47 -19 0 -34 -4 -34 -10z"/>
<path d="M3680 1788 c0 -22 3 -28 9 -20 7 11 24 11 102 0 l93 -13 -112 -43
c-71 -27 -112 -49 -112 -58 0 -8 6 -14 13 -14 43 -1 201 -31 213 -41 12 -9 14
-6 14 21 0 25 -3 30 -12 23 -9 -7 -41 -6 -93 1 l-79 12 101 39 c90 36 102 43
105 67 3 21 1 25 -10 19 -16 -9 -178 14 -204 29 -26 15 -28 13 -28 -22z"/>
<path d="M216 1640 c-47 -15 -76 -49 -76 -90 0 -75 63 -113 147 -91 67 18 93
45 93 96 0 77 -70 113 -164 85z m118 -26 c27 -10 38 -40 25 -67 -17 -38 -114
-74 -165 -61 -34 9 -50 49 -30 79 24 37 126 66 170 49z"/>
<path d="M3628 1533 l-25 -78 30 -13 c38 -17 49 -6 18 17 -22 17 -23 21 -11
55 10 32 15 37 36 32 59 -15 73 -24 67 -47 -3 -12 -14 -24 -25 -26 -28 -8 -22
-20 14 -27 36 -7 45 -2 30 17 -16 19 -3 59 17 53 9 -3 28 -8 44 -12 15 -3 27
-10 27 -14 0 -25 -25 -70 -41 -75 -26 -9 -24 -22 5 -27 22 -4 25 0 41 61 10
36 20 72 23 79 2 7 -1 10 -10 7 -21 -8 -191 43 -205 61 -9 13 -16 2 -35 -63z"/>
<path d="M3580 1390 c-26 -51 -25 -72 3 -98 31 -30 57 -28 102 8 44 35 90 40
100 10 8 -26 -11 -60 -35 -60 -28 0 -33 -17 -7 -24 53 -14 82 97 32 130 -28
18 -57 12 -98 -22 -32 -27 -69 -31 -87 -9 -19 22 -8 49 28 67 32 15 33 17 14
27 -29 15 -29 15 -52 -29z"/>
<path d="M230 1407 c-21 -11 -25 -20 -24 -57 1 -49 34 -137 41 -109 5 19 188
93 205 83 11 -7 3 28 -13 56 -7 13 -8 12 -9 -2 0 -10 -2 -18 -4 -18 -2 0 -20
-7 -40 -15 l-36 -15 -14 34 c-22 52 -59 67 -106 43z m80 -37 c30 -30 24 -46
-26 -65 -39 -15 -48 -15 -55 -4 -16 25 -5 63 21 76 33 17 37 16 60 -7z"/>
<path d="M3594 1158 c-24 -22 -38 -47 -45 -77 -14 -61 -80 -153 -79 -108 1 6
5 32 10 57 11 60 4 67 -32 33 -52 -49 -75 -101 -82 -183 -6 -67 -10 -78 -37
-105 l-31 -30 5 70 c3 39 2 78 -2 88 -6 16 -13 12 -53 -30 -60 -65 -66 -77
-84 -178 -14 -74 -20 -88 -46 -106 -16 -12 -32 -18 -35 -15 -4 4 1 28 11 55 9
27 16 63 14 80 l-3 31 -58 -45 c-69 -54 -90 -87 -117 -176 -18 -61 -24 -68
-58 -82 -20 -8 -38 -12 -40 -8 -1 4 11 34 28 65 42 81 40 92 -12 65 -79 -40
-117 -78 -139 -140 l-21 -58 -82 -33 c-90 -37 -79 -50 21 -23 75 21 72 21 138
0 67 -21 115 -14 210 31 68 33 61 40 -51 54 -43 6 -79 12 -82 14 -2 3 14 14
37 25 34 18 47 20 83 11 107 -24 209 2 297 78 l35 30 -42 7 c-24 4 -71 4 -105
0 -65 -7 -66 -6 -7 36 27 20 52 27 113 32 43 4 92 14 110 23 35 17 127 103
127 117 0 5 -17 6 -37 3 -21 -3 -58 -9 -83 -12 l-45 -7 26 33 c21 28 38 37 99
52 42 10 84 28 98 41 24 21 75 117 67 125 -2 2 -16 -5 -32 -16 -30 -22 -83
-37 -83 -25 1 16 46 61 77 77 18 9 39 29 46 44 18 34 28 112 16 112 -5 0 -25
-15 -45 -32z"/>
<path d="M390 1143 c0 -52 29 -105 68 -124 29 -15 72 -58 72 -73 0 -14 -36 -4
-77 19 l-43 26 17 -43 c34 -87 73 -118 172 -134 40 -6 112 -66 94 -77 -5 -3
-40 1 -78 9 -38 8 -73 13 -78 11 -14 -4 84 -102 123 -122 19 -10 69 -20 115
-24 67 -5 86 -11 118 -35 20 -15 37 -30 37 -32 0 -1 -38 -2 -85 -2 -47 1 -88
-1 -91 -5 -19 -18 94 -94 169 -114 39 -10 65 -10 119 -1 60 10 73 9 108 -7 46
-21 38 -34 -20 -35 -19 0 -57 -6 -85 -14 l-50 -13 68 -33 c87 -42 143 -48 211
-25 52 18 54 18 135 -4 46 -12 85 -20 88 -17 4 3 -29 22 -73 42 -86 39 -89 42
-104 95 -6 21 -26 52 -45 70 -39 39 -121 86 -131 77 -3 -4 8 -37 25 -74 17
-37 30 -69 27 -71 -2 -2 -20 4 -40 13 -32 16 -39 26 -56 84 -11 36 -31 81 -45
100 -25 34 -113 110 -127 110 -13 0 -9 -55 7 -100 23 -66 20 -75 -19 -45 -30
23 -36 35 -47 98 -14 85 -47 151 -100 203 -44 43 -43 45 -39 -71 l2 -70 -30
28 c-26 25 -30 37 -36 108 -6 66 -13 86 -39 125 -18 26 -43 54 -56 63 l-24 16
7 -68 c3 -37 5 -67 3 -67 -12 0 -66 91 -72 120 -9 45 -27 73 -65 100 l-30 21
0 -38z"/>
<path d="M2261 323 c-13 -27 -34 -72 -48 -101 l-23 -53 57 3 c54 3 58 1 61
-20 2 -13 -2 -30 -10 -39 -11 -15 -10 -16 12 -10 14 4 34 7 44 7 18 0 18 1 4
12 -9 7 -18 25 -20 41 -5 23 -2 27 18 27 17 0 24 6 24 20 0 11 -4 20 -10 20
-5 0 -10 -4 -10 -10 0 -5 -6 -10 -14 -10 -13 0 -36 93 -36 143 0 33 -26 16
-49 -30z m32 -65 c2 -29 4 -54 3 -55 0 0 -18 -4 -38 -8 l-37 -7 27 61 c15 34
30 61 33 61 4 0 9 -24 12 -52z"/>
<path d="M1673 347 c-45 -17 -54 -31 -15 -22 l34 7 -8 -47 c-3 -26 -12 -70
-18 -98 -10 -46 -15 -53 -41 -58 -37 -7 -22 -14 58 -27 31 -5 57 -5 57 0 0 4
-6 8 -14 8 -32 0 -35 24 -15 130 10 58 19 108 19 113 0 10 -19 8 -57 -6z"/>
<path d="M1844 336 c-35 -15 -44 -32 -44 -80 0 -49 28 -70 85 -64 25 3 45 3
45 1 0 -3 -7 -20 -16 -39 -11 -22 -28 -38 -50 -46 -36 -13 -45 -28 -16 -28 28
0 80 37 97 69 22 44 30 115 15 150 -7 18 -24 34 -42 40 -38 13 -36 13 -74 -3z
m75 -20 c7 -8 11 -34 9 -58 -3 -41 -5 -43 -38 -46 -37 -4 -60 16 -60 53 0 51
61 86 89 51z"/>
<path d="M2062 342 c-35 -5 -62 -58 -62 -120 0 -54 21 -120 43 -134 24 -15 76
-8 96 13 35 38 39 138 9 204 -12 26 -50 43 -86 37z m35 -20 c34 -22 46 -168
17 -210 -37 -54 -74 -1 -74 108 0 94 18 127 57 102z"/>
</g>
</svg>
